HIERARCHY
ROOT Hips
{
  OFFSET -35.4901 99.2528 17.4586
  CHANNELS 6 Xposition Yposition Zposition Zrotation Xrotation Yrotation
  JOINT LeftUpLeg
  {
    OFFSET 8.64259 1.95398 -2.38835
    CHANNELS 3 Zrotation Xrotation Yrotation
    JOINT LeftLeg
    {
      OFFSET 43.7702 0 0
      CHANNELS 3 Zrotation Xrotation Yrotation
      JOINT LeftFoot
      {
        OFFSET 40.6238 0 0
        CHANNELS 3 Zrotation Xrotation Yrotation
        JOINT LeftToeBase
        {
          OFFSET 12.7242 0 0
          CHANNELS 3 Zrotation Xrotation Yrotation
          End Site
          {
            OFFSET 0 0 0
          }
        }
      }
    }
  }
  JOINT RightUpLeg
  {
    OFFSET -8.2249 1.95398 -2.59336
    CHANNELS 3 Zrotation Xrotation Yrotation
    JOINT RightLeg
    {
      OFFSET 43.5653 0 0
      CHANNELS 3 Zrotation Xrotation Yrotation
      JOINT RightFoot
      {
        OFFSET 40.6238 0 0
        CHANNELS 3 Zrotation Xrotation Yrotation
        JOINT RightToeBase
        {
          OFFSET 12.7242 0 0
          CHANNELS 3 Zrotation Xrotation Yrotation
          End Site
          {
            OFFSET 0 0 0
          }
        }
      }
    }
  }
  JOINT Spine
  {
    OFFSET 0.165834 0.87714 6.61349
    CHANNELS 3 Zrotation Xrotation Yrotation
    JOINT Spine1
    {
      OFFSET 7.38963 1.71661e-005 0
      CHANNELS 3 Zrotation Xrotation Yrotation
      JOINT Spine2
      {
        OFFSET 11.9445 1.14441e-005 0
        CHANNELS 3 Zrotation Xrotation Yrotation
        JOINT Spine3
        {
          OFFSET 14.7254 4.19617e-005 0
          CHANNELS 3 Zrotation Xrotation Yrotation
          JOINT Spine4
          {
            OFFSET 10.9679 0 0
            CHANNELS 3 Zrotation Xrotation Yrotation
            JOINT RightShoulder
            {
              OFFSET 2.46616 -1.6653 3.69651
              CHANNELS 3 Zrotation Xrotation Yrotation
              JOINT RightArm
              {
                OFFSET 13.0012 0 0
                CHANNELS 3 Zrotation Xrotation Yrotation
                JOINT RightForeArm
                {
                  OFFSET 28.7848 1.52588e-005 0
                  CHANNELS 3 Zrotation Xrotation Yrotation
                  JOINT RightHand
                  {
                    OFFSET 26.5688 1.52588e-005 0
                    CHANNELS 3 Zrotation Xrotation Yrotation
                    End Site
                    {
                      OFFSET 0 0 0
                    }
                  }
                }
              }
            }
            JOINT LeftShoulder
            {
              OFFSET 2.38034 -1.29275 -3.7523
              CHANNELS 3 Zrotation Xrotation Yrotation
              JOINT LeftArm
              {
                OFFSET 16.3182 6.10351e-005 0
                CHANNELS 3 Zrotation Xrotation Yrotation
                JOINT LeftForeArm
                {
                  OFFSET 27.0901 0 0
                  CHANNELS 3 Zrotation Xrotation Yrotation
                  JOINT LeftHand
                  {
                    OFFSET 24.5451 1.52588e-005 0
                    CHANNELS 3 Zrotation Xrotation Yrotation
                    End Site
                    {
                      OFFSET 0 0 0
                    }
                  }
                }
              }
            }
            JOINT Neck
            {
              OFFSET 5.0226 -0.0266342 0
              CHANNELS 3 Zrotation Xrotation Yrotation
              JOINT Head
              {
                OFFSET 6.69364 2.86102e-005 0
                CHANNELS 3 Zrotation Xrotation Yrotation
                End Site
                {
                  OFFSET 0 0 0
                }
              }
            }
          }
        }
      }
    }
  }
}
MOTION
Frames:	10
Frame Time:	0.0416667
-227.514 66.0905 -231.167 -17.3523 -53.1038 -18.3633 -48.2288 61.2696 -4.31074 -92.5998 16.5763 -16.2794 80.487 10.8511 10.8245 23.271 13.0872 -19.0821 -167.243 55.4283 52.9136 -77.8611 -2.14968 -4.75609 112.904 -15.7164 18.761 41.7911 3.86665 -18.2794 0.266688 11.7276 -90.9288 3.41614 0.163027 -1.81679 -8.25614 0.0829291 -1.8222 -30.7821 0.701425 -1.68387 -10.7694 0.70143 -1.68387 83.8309 -22.8749 -123.047 -9.68804 17.3206 -40.6235 2.38748 -45.0542 -7.70449 -39.3868 -4.76773 5.85382 -93.8631 -27.3875 64.8378 -8.27095 -15.6062 -70.5822 13.2242 35.7298 -3.92986 8.74866 0.299508 -0.169737 41.4599 -1.2146 -0.304055 -0.741932 -0.966291 3.2956 
-233.951 63.7134 -234.864 -7.59019 -52.0087 -11.054 -41.6012 57.6916 -13.2218 -95.0414 7.61425 -16.6239 79.8892 10.2993 8.55681 22.0475 7.18584 -10.0834 -155.948 60.5824 45.4817 -91.4487 0.549723 -3.56013 114.159 -16.9327 17.208 46.1247 3.03569 -18.7462 0.448268 11.9337 -90.9443 3.00681 0.522783 -1.84149 -8.66539 0.441235 -1.86272 -31.193 1.05199 -1.59933 -11.1804 1.05199 -1.59936 82.9836 -22.0576 -125.392 -10.0234 26.2004 -35.1277 -0.575108 -38.1408 -11.2118 -49.8708 -5.82377 6.31572 -96.0573 -31.9978 62.9357 -9.91001 -18.2087 -69.2221 23.2535 37.9282 -18.0435 12.3631 0.554468 0.515763 39.8849 1.29971 5.64069 4.3342 -1.34242 2.65316 
-239.312 61.539 -236.418 2.41471 -51.2788 -4.69122 -39.0431 56.0402 -17.0211 -93.7603 11.36 -16.2623 76.6259 8.23516 6.65382 22.8078 9.87561 -14.2328 -146.222 60.9288 37.6296 -101.219 -1.99227 -2.72844 115.68 -19.841 12.5233 49.4501 2.14147 -17.9285 0.443705 12.2117 -90.8605 2.45121 0.550641 -1.6709 -9.22072 0.476574 -1.69353 -31.7501 1.02731 -1.42825 -11.7375 1.02731 -1.42825 83.4099 -22.3118 -124.32 -10.4491 29.5164 -32.0314 -1.21253 -31.0038 -12.2617 -45.5924 -2.93471 0.501543 -97.5245 -33.2624 60.9448 -5.6991 -19.2814 -67.3057 21.4882 29.4576 -20.8653 16.4356 0.658764 0.151926 34.253 1.83865 12.1984 11.9286 -3.46199 0.275847 
-243.758 59.8253 -236.456 7.57871 -49.2014 -1.29652 -36.1203 53.783 -16.5948 -91.8673 17.786 -18.2653 74.9163 7.29989 7.52226 19.787 10.198 -13.5978 -140.287 62.9058 35.8871 -108.004 7.29368 -1.77933 116.005 -19.9819 12.4688 52.355 1.67643 -18.9202 0.836768 12.4862 -90.8141 1.9073 1.35713 -1.55629 -9.76393 1.28734 -1.6145 -32.3008 1.76209 -1.07647 -12.2881 1.76209 -1.07647 84.7068 -23.6356 -120.742 -5.39926 33.8746 -31.8959 -4.22199 -18.7602 -18.4238 -66.8885 -7.62731 6.48881 -98.3293 -30.1251 57.9175 -7.04601 -22.2454 -65.8759 28.8882 27.7555 -32.885 18.127 0.457346 -1.34374 31.0035 0.556347 14.9032 17.9747 -5.07172 1.87766 
-246.754 58.8628 -235.696 12.1978 -48.1209 3.96187 -33.883 53.395 -17.6884 -90.3546 22.6579 -19.2432 72.817 6.1473 8.09156 21.0959 6.11155 -8.26175 -144.074 65.0736 41.4993 -111.617 8.14183 -1.13634 114.134 -21.7821 8.61087 54.8779 1.17799 -19.3428 1.02112 12.9526 -91.038 0.977787 1.64636 -1.9639 -10.6937 1.55835 -2.03444 -33.2307 2.16041 -1.37835 -13.218 2.16042 -1.37835 85.5528 -27.0571 -117 0.180484 41.9373 -33.619 -15.8782 -29.5208 -34.7518 -57.7869 -6.51505 5.9876 -97.0933 -23.9332 56.7152 -8.97708 -26.8296 -63.4066 30.7553 21.7152 -39.7231 20.5335 0.528181 -1.31087 23.2125 -1.64578 5.62932 26.045 -0.479683 11.467 
-248.028 59.0602 -234.422 14.7223 -49.2765 8.6296 -33.5767 54.7455 -17.5761 -90.3026 24.7225 -18.4215 72.2808 5.89045 8.46679 20.6348 7.28262 -9.83093 -155.689 64.2807 53.0938 -111.094 7.14845 -1.02759 114.503 -21.9951 8.44183 55.7943 0.740014 -17.4823 1.39585 13.4514 -91.2178 -0.0148938 2.33406 -2.25194 -11.6859 2.23271 -2.35247 -34.2302 2.90284 -1.44621 -14.2175 2.90285 -1.44622 86.6915 -27.319 -114.566 -2.20149 41.1227 -31.3323 -8.57072 -18.207 -31.2227 -70.5336 -5.52438 2.58888 -95.1095 -18.7433 57.4941 -11.0669 -28.186 -65.5398 31.3706 21.2912 -40.7673 21.8413 0.857084 0.0287686 21.5461 -1.92682 -3.84701 25.3598 4.1795 18.5098 
-247.611 60.6305 -232.702 16.1337 -51.0002 12.8384 -34.5802 57.8892 -18.8096 -91.632 22.4967 -15.4984 73.497 6.40548 6.88158 17.5292 12.021 -15.3625 -166.678 59.9659 64.2508 -106.137 3.96965 -1.29429 114.309 -23.0496 6.21688 55.3778 0.631044 -15.9684 1.80365 13.7162 -91.3881 -0.537457 3.08893 -2.52318 -12.2074 2.97494 -2.65667 -34.7638 3.70426 -1.4776 -14.7512 3.70426 -1.4776 86.597 -26.7862 -115.035 -4.11834 39.4455 -28.8263 -5.12978 -12.6468 -25.3894 -70.4162 -7.11335 5.00668 -93.3411 -15.5612 59.2749 -9.93613 -25.3817 -69.8217 29.6996 24.03 -36.2601 21.1328 1.12632 1.47413 26.5527 -0.978279 -2.32203 19.6414 3.66146 18.4465 
-245.953 63.3533 -230.375 16.9314 -52.6657 16.5646 -37.7424 62.7107 -19.5955 -92.2396 18.9749 -12.5878 75.9049 7.5913 6.10352 22.2624 9.77193 -13.9312 -173.085 53.0836 71.6563 -97.8097 5.03006 -1.79379 114.44 -21.9858 8.15846 55.5407 0.450345 -14.7926 2.07097 13.7272 -91.4484 -0.554913 3.5998 -2.61082 -12.2238 3.48145 -2.76676 -34.7913 4.21776 -1.40711 -14.7787 4.21778 -1.40712 84.8249 -25.9977 -119.062 -14.3746 29.1048 -25.0028 2.36417 -3.13509 -8.27012 -60.1517 -6.09894 5.49224 -91.8388 -14.2026 61.8617 -1.45646 -22.3794 -74.6748 25.8924 34.0547 -27.0117 13.1581 0.816406 1.7924 31.7756 0.899532 0.655879 13.3104 2.88527 16.1709 
-242.967 66.7305 -227.068 20.3585 -53.3631 20.8977 -50.3884 67.8857 -12.8869 -91.3613 15.3488 -10.9125 79.0405 8.74307 3.50032 28.9837 7.64491 -12.8268 -178.005 44.3811 74.1322 -86.4873 8.35031 -2.52349 115.801 -19.0614 14.1274 53.4204 0.908194 -15.1784 2.03186 13.5833 -91.4035 -0.267956 3.53579 -2.54145 -11.9369 3.42056 -2.69463 -34.5033 4.13587 -1.36023 -14.4907 4.13589 -1.36023 84.8829 -22.36 -121.194 -20.4619 15.0233 -21.6872 9.05766 -6.91863 0.730762 -35.3576 -1.98849 1.12403 -89.9101 -13.8241 66.2442 5.70363 -21.6619 -80.5172 15.5507 38.2708 -13.9481 -4.56956 0.246429 -10.7603 37.1268 2.71487 3.46881 7.0339 2.02359 12.5853 
-239.302 69.8711 -222.213 19.319 -52.5384 22.3148 -62.6319 71.8311 -4.01659 -90.0958 20.028 -9.71176 83.601 10.441 1.26319 24.3058 7.88515 -11.6881 177.865 35.8669 77.3863 -71.3628 1.21778 -2.99447 112.388 -19.3386 11.4909 51.965 0.882305 -13.4572 2.02893 13.1548 -91.1956 0.587097 3.60037 -2.17906 -11.0809 3.501 -2.3355 -33.6522 4.08859 -0.994947 -13.6395 4.0886 -0.994952 85.1376 -20.4842 -121.895 -18.7703 11.4967 -18.8514 9.93355 -31.4201 0.00624149 -10.8173 -0.488717 -13.2954 -89.891 -15.5874 67.2982 7.35754 -23.134 -79.1259 14.0406 43.0404 -11.2813 -12.8873 1.00212 -16.6194 42.8881 5.18051 7.68727 2.13202 1.18934 8.04367 
